<?xml version="1.0" encoding="UTF-8"?>
<svg width="24" height="24" viewBox="0 0 24 24" fill="none" xmlns="http://www.w3.org/2000/svg">
  <path d="M20.47 2H3.53C2.64 2 2 2.64 2 3.53V20.47C2 21.36 2.64 22 3.53 22H20.47C21.36 22 22 21.36 22 20.47V3.53C22 2.64 21.36 2 20.47 2ZM8.09 18.74H5.07V9.63H8.09V18.74ZM6.58 8.33C5.61 8.33 4.82 7.54 4.82 6.57C4.82 5.6 5.61 4.81 6.58 4.81C7.55 4.81 8.34 5.6 8.34 6.57C8.34 7.54 7.55 8.33 6.58 8.33ZM18.91 18.74H15.89V14.13C15.89 13.01 15.87 11.53 14.28 11.53C12.67 11.53 12.42 12.78 12.42 14.07V18.74H9.4V9.63H12.27V10.93H12.31C12.75 10.17 13.72 9.37 15.17 9.37C18.22 9.37 18.91 11.43 18.91 14.07V18.74Z" fill="white"/>
</svg>
